<svg xmlns="http://www.w3.org/2000/svg" viewBox="0 0 181.98 56.3">
  <g fill-rule="evenodd" clip-rule="evenodd">
    <path fill="#006AA7" d="M13.56 4.62C18.46 1.57 22.7 0 29 0c9.3 0 15 3.44 21.1 9.43-1.95-.4-4.8-.6-6.96-.5-10.13.9-16.6 5.32-19.07 11.6-2.75 1.97-4.02 3.94-4.32 7.67 0 1.18.2 1.87.6 2.95-5.32-3.93-7.48-11.2-7.48-19.75 0-2.16.2-4.82.7-6.78z"/>
    <path fill="#3F87BB" d="M52.47 12.97c3.05 5 4.62 9.14 4.62 15.53 0 9.33-3.5 15.03-9.6 21.02.5-1.96.7-4.7.5-6.88-.8-10.2-5.2-16.6-11.5-19.06-2-2.75-3.97-4.03-7.7-4.32-1.3-.1-1.88.2-3.06.5 3.93-5.32 11.3-7.48 19.85-7.48 2.15 0 4.8.3 6.77.7z"/>
    <path fill="#8CADD0" d="M43.82 51.7c-5 2.93-9.13 4.6-15.42 4.6-9.34 0-15.04-3.44-21.13-9.53 1.97.4 4.82.7 6.98.5 10.12-.8 16.6-5.2 19.06-11.5 2.8-1.97 4-3.93 4.3-7.67.1-1.27-.1-1.96-.5-3.04 5.3 3.94 7.5 11.3 7.5 19.84 0 2.2-.27 4.9-.67 6.8z"/>
    <path fill="#BDCDE3" d="M4.62 43.53C1.67 38.53 0 34.4 0 28c0-9.33 3.44-15.03 9.53-21.02-.4 1.96-.7 4.8-.5 6.97.8 10.12 5.22 16.6 11.5 18.97 1.97 2.75 3.94 4.03 7.67 4.32 1.28.1 1.97-.2 3.05-.5-3.93 5.32-11.3 7.48-19.85 7.48-2.16 0-4.82-.3-6.78-.7z"/>
    <path fill="#006AA7" d="M80.77 9.04h4.13c6 0 8.94 2.85 8.94 9.63 0 5.3-2.36 9.04-10.02 9.04h-3.05V9.1zm0 20.93h2.85l13.86 19.55h13.56v-1.18c-2.56 0-3.44-1.27-5.2-3.63L94.7 29.2c5.4-.98 9.73-5 9.73-10.5 0-8.36-6.3-12.1-16-12.1h-23.8v1.18c6.1 0 6.1 1.67 6.1 6.88V41.5c0 5.2 0 6.86-6.1 6.86v1.18h22.2v-1.18c-6.08 0-6.08-1.67-6.08-6.87V30zM140.42 5.6h-1.18c-.3 1.38-.5 2.85-2.26 2.85-.98 0-1.97-.5-2.85-.88-2.75-1.38-4.82-1.97-7.86-1.97-6.98 0-13.17 5-13.17 12.28 0 14.55 22.9 14.15 22.9 24.08 0 4.12-4.13 6.38-7.77 6.38-7.47 0-12.97-7.07-13.95-14.05h-1.18v16.2h1.18c.5-1.3 1.77-2.6 3.24-2.6.7 0 1.77.4 2.46.6 2.94 1.23 5.1 1.92 8.45 1.92 7.66 0 14.74-5.1 14.74-13.27 0-14.34-23.2-14.74-23.2-23.48 0-3.94 3.64-5.7 7.18-5.7 6.2 0 11.4 6 12.1 11.8h1.17V5.6zm30.95 3.44c5 0 7.67 1.57 9.44 9.14h1.2V6.58h-38.5v11.6h1.2c1.8-7.57 4.5-9.14 9.48-9.14h3.54v32.43c0 5.2 0 6.87-6.1 6.87v1.18h22.5v-1.18c-6.1 0-6.1-1.67-6.1-6.87V9.04h3.46z"/>
  </g>
</svg>
